<svg width="365" height="58" viewBox="0 0 365 58" fill="none" xmlns="http://www.w3.org/2000/svg">
<path d="M24.2502 12.0903C24.2502 12.0903 16.7909 22.1256 14.5436 28.9429C13.8646 31.0071 11.2443 36.5541 9.59944 39.4017C8.34667 41.5612 6.41491 42.5563 4.46402 43.0855C2.58008 43.5937 0.877831 43.4349 0.370983 43.0432C-0.948735 42.0164 1.56638 37.4751 3.01042 35.0086C4.58834 32.3092 6.29059 29.7686 9.62813 25.2167C12.9657 20.6542 18.2541 15.0437 18.2541 15.0437C18.2541 15.0437 23.7434 9.38032 25.4456 7.57015C27.1479 5.75997 26.8036 5.33654 28.0468 4.3944C29.29 3.45227 30.7341 3.48402 32.2163 4.89194C33.7082 6.29985 33.6604 7.79245 33.2492 8.88279C33.0866 9.30622 31.4226 13.8793 29.7682 18.2195C27.1383 25.1426 25.4361 29.4616 24.5276 31.7164C22.9783 35.5908 23.5808 37.0199 24.8718 35.919C25.3882 35.4743 27.8651 31.4306 29.816 28.6888C32.7232 24.5921 35.3052 21.3952 35.3052 21.3952C35.3052 21.3952 47.3644 6.04579 48.7032 4.20386C50.0421 2.36193 50.0421 1.55741 50.8358 0.774056C51.6296 0.00129203 52.4998 -0.0410512 53.3701 0.911672C54.2403 1.86439 54.1256 2.6795 53.3988 3.49461C52.672 4.30972 51.7443 4.2462 50.4151 6.17282C49.0953 8.09944 42.1812 18.1136 42.1812 18.1136C42.1812 18.1136 34.4637 31.2083 31.4513 35.6649C28.4485 40.1215 27.2244 41.6459 25.5317 43.1914C24.298 44.3135 23.0739 45.7214 18.2254 45.6367C17.0778 45.3297 14.1898 44.6311 14.5627 42.2387C14.6488 41.6988 15.1461 39.137 16.418 35.4214C17.4317 32.468 19.2296 28.5512 20.3867 25.1849C22.7679 18.2301 24.9866 12.5455 24.977 11.8151C24.977 11.0741 24.2502 12.0903 24.2502 12.0903Z" fill="white"/>
<path d="M54.0687 11.2859C54.9007 10.0156 58.1235 5.32613 59.0798 4.03467C60.017 2.77495 62.3313 1.46231 63.5076 2.8914C64.6839 4.32048 64.856 6.99869 63.8614 7.57033C58.9077 10.365 57.4445 10.9472 55.5319 12.2704C54.3939 13.0538 53.2367 12.5562 54.0687 11.2859Z" fill="white"/>
<path d="M41.5223 21.6468C42.3926 21.1281 44.9555 20.0801 46.2561 18.6722C47.5567 17.2749 49.3928 15.0942 50.3491 15.0201C51.2959 14.9354 51.468 14.9354 52.8738 15.7823C54.27 16.6291 54.4039 16.8726 54.3178 17.8571C54.2222 18.8416 52.6634 22.3667 51.7932 23.5205C51.1237 24.4097 48.2739 27.1832 47.7671 27.7972C47.2602 28.4217 47.8818 28.9616 48.3791 28.6017C48.8764 28.2418 58.0857 21.7844 59.2907 20.8C60.4956 19.8049 65.4685 15.7611 67.515 16.7138C69.5615 17.656 68.2131 20.9799 68.2131 20.9799C68.2131 20.9799 72.7652 18.0688 75.3568 16.2904C77.6711 14.7025 81.3147 13.5698 82.8926 14.4908C84.6618 15.5282 85.2547 17.2431 84.9391 18.0794C84.2314 19.9637 82.9404 21.9326 81.965 23.0865C80.9895 24.2403 74.5822 31.7986 74.1614 32.275C73.7406 32.7619 74.0275 33.2806 74.5344 33.1113C75.0412 32.9313 75.7585 32.6878 76.3705 32.4867C76.9825 32.2856 76.8391 34.0852 76.3801 34.6462C75.9115 35.2072 73.6163 36.6152 71.3211 38.5312C70.47 39.2404 69.8484 39.9814 69.4659 40.1932C68.1462 40.9342 66.9412 39.7274 66.004 38.8594C65.0573 37.9807 63.2403 36.2023 63.7376 34.7309C64.4548 32.582 72.2105 24.6003 72.7461 23.9863C73.4824 23.15 72.4592 22.229 71.6654 22.6948C70.7378 23.2347 66.2622 25.9023 62.6952 28.7605C60.6487 30.4013 58.6786 34.4239 57.5502 36.3823C55.9627 39.1346 55.5802 41.2835 54.4804 41.2835C53.1416 41.2941 50.7316 39.4733 50.2152 38.6053C49.6988 37.7267 49.7084 36.3188 50.1005 35.3978C50.5786 34.2863 53.8397 30.8035 56.3261 28.1783C57.4641 26.9715 58.7551 25.4683 59.2429 24.8226C60.1227 23.6475 60.7825 22.7372 61.0886 22.1761C61.5572 21.3187 61.2129 21.0328 60.7443 21.4563C60.1227 22.0279 57.1772 24.2827 57.1772 24.2827C57.1772 24.2827 47.8436 31.3223 46.3995 32.8149C44.9555 34.3075 41.3119 38.076 40.4895 38.8382C39.6671 39.6004 37.9457 40.5319 35.8227 40.045C34.2543 39.685 33.5658 38.7217 33.3936 37.7267C33.2215 36.7316 33.8909 35.8742 34.9429 34.2334C35.3158 33.6617 37.4771 30.5707 37.764 30.2425C39.2176 28.5911 41.4936 28.1889 41.5414 26.4104C41.5701 25.3942 39.8583 24.6003 39.8392 23.7322C39.7914 23.3617 40.6521 22.1761 41.5223 21.6468Z" fill="white"/>
<path d="M94.7492 18.2493C96.0784 19.6148 95.8872 22.346 94.9882 23.1717C94.0893 23.9868 93.2095 24.7172 92.6835 25.2782C92.1575 25.8287 92.1862 26.4109 91.4786 27.4589C90.7709 28.5069 83.8758 38.2882 83.8758 38.2882C83.8758 38.2882 83.063 39.6644 81.7433 41.3052C80.414 42.946 78.9126 45.0843 77.1147 46.6192C75.5846 47.9213 74.7717 48.3659 72.62 48.9693C70.3918 49.5938 67.8001 50.0702 66.5474 50.6524C64.0801 51.8063 56.5539 56.0935 55.1959 56.9616C53.8379 57.8296 51.6862 57.1733 53.1111 56.1147C55.2246 54.5374 62.9421 50.0384 64.8069 47.5084C65.4763 46.6086 67.7428 45.3384 70.2005 43.0412C71.2525 42.0568 72.9069 39.7173 73.3564 39.3256C78.4344 34.7843 81.9154 28.02 82.8526 26.6015C83.7611 25.2253 84.201 23.8174 85.2912 22.7906C86.2762 21.8696 88.6192 20.5887 89.1738 20.07C90.1206 19.202 91.1725 16.8202 91.3256 16.7143C91.8133 16.3438 93.4199 16.8943 94.7492 18.2493Z" fill="white"/>
<path d="M103.003 0.913414C103.567 0.352366 104.897 -0.346298 106.207 1.72852C107.201 3.30581 106.886 4.52318 106.637 5.1054C106.388 5.68761 105.585 6.64034 104.629 7.28607C103.242 8.22821 102.305 8.56695 100.297 9.71022C98.2884 10.8535 96.8061 12.3884 95.7637 13.0765C94.7117 13.754 93.9467 13.4364 94.8839 11.7321C95.2855 10.9911 97.8293 7.5613 99.6942 4.89368C101.358 2.51187 102.439 1.47446 103.003 0.913414Z" fill="white"/>
<path d="M130.708 31.3589C129.885 29.4217 128.843 29.4323 127.781 29.9298C127.504 30.0568 126.07 31.1895 122.369 32.7668C121.651 33.0738 114.661 35.6462 112.997 36.1543C112.49 36.3131 111.983 35.9637 112.509 35.2651C114.785 32.2481 116.277 31.0731 117.673 29.1571C118.763 27.675 117.558 26.4259 117.721 25.939C117.893 25.452 119.442 24.8275 120.351 23.6842C121.25 22.5303 123.277 19.4393 122.751 16.7081C122.302 14.3793 118.964 14.4216 116 15.5437C115.435 15.7554 112.566 17.1845 111.065 17.8197C108.665 18.8253 107.039 18.9417 97.3322 24.9968C93.9086 27.1246 91.6135 29.4005 90.9249 30.4591C90.5902 30.9672 89.3374 32.8833 88.8114 34.45C88.2472 36.1331 88.3046 37.975 88.7636 39.0971C89.0314 39.764 90.3607 41.4789 91.2214 42.1882C91.929 42.7704 93.2966 42.7069 94.3103 42.0082C98.279 39.2983 100.966 37.7421 102.487 36.5142C102.994 36.1119 104.763 34.8734 105.652 34.2594C105.958 34.0477 106.063 34.2277 105.949 34.577C105.843 34.9263 104.878 38.4408 105.537 40.2616C106.102 41.8283 107.727 42.3682 108.617 41.9659C109.506 41.5636 118.496 37.4881 125.611 35.5615C128.757 34.704 130.21 35.0322 130.717 34.5029C131.501 33.6878 131.014 32.0576 130.708 31.3589ZM106.628 29.3053C105.757 30.2897 105.49 31.1154 105.021 31.3271C104.552 31.5389 101.368 32.9044 100.153 33.6137C98.5946 34.5346 97.1505 35.0639 96.1464 35.4874C95.3622 35.8261 94.5493 36.1966 94.2529 35.6991C93.8799 35.0851 94.1381 34.4605 95.563 33.1691C97.7148 31.2107 101.97 28.4796 103.606 27.5268C105.241 26.5847 107.756 25.3991 109.238 24.5946C110.721 23.8006 112.997 22.8162 114.173 22.9749C114.938 23.0808 115.254 24.0229 114.919 24.4146C114.584 24.8063 111.715 26.3836 110.615 27.0928C109.076 28.0879 107.134 28.7336 106.628 29.3053Z" fill="white"/>
<path d="M190.668 15.1758L181.506 27.9317H187.158L190.429 23.3798H216.029L212.759 27.9317H218.42L227.591 15.1758H221.93L218.219 20.3417H192.619L196.329 15.1758H190.668Z" fill="white"/>
<path d="M227.37 18.6875L225.515 21.2704C224.702 22.4031 225.429 24.0757 226.739 24.0757H249.337L246.956 27.389H221.125L218.907 30.4695H248.323C249.27 30.4695 250.169 29.9931 250.762 29.1675L258.297 18.6875H253.2L251.269 21.3763H229.646L231.578 18.6875H227.37Z" fill="white"/>
<path d="M288.719 27.93L294.428 20.0013C295.021 19.1756 295.92 18.6992 296.867 18.6992H319.321L317.39 21.388H299.449C298.971 21.388 298.521 21.6315 298.225 22.0443L293.989 27.9406H288.719V27.93Z" fill="white"/>
<path d="M314.913 27.93L321.549 18.6992H326.914L320.278 27.93H314.913Z" fill="white"/>
<path d="M327.67 17.6423H322.315L324.084 15.1758H329.439L327.67 17.6423Z" fill="white"/>
<path d="M268.014 15.1758H262.965L255.811 25.1264C254.998 26.2591 255.725 27.9317 257.035 27.9317H285.027C285.974 27.9317 286.872 27.4553 287.465 26.6296L291.157 21.5061C291.97 20.3734 291.243 18.7009 289.933 18.7009H265.48L268.014 15.1758ZM285.993 21.3791L283.305 25.1264H260.861L263.548 21.3791H285.993Z" fill="white"/>
<path d="M359.208 15.1758L356.674 18.6903H330.682C329.735 18.6903 328.836 19.1666 328.243 19.9923L324.552 25.1159C323.739 26.2485 324.465 27.9211 325.776 27.9211H353.805C354.752 27.9211 355.651 27.4447 356.244 26.619L364.478 15.1758H359.208ZM352.055 25.1264H329.859L332.546 21.3791H354.742L352.055 25.1264Z" fill="white"/>
<path d="M151.03 49.6127H146L151.919 38.8469C152.177 38.3705 152.512 37.9471 152.895 37.5978L174.077 18.0352C174.096 18.014 174.115 17.9928 174.134 17.9611L177.3 12.4459C177.328 12.4035 177.386 12.2977 177.309 12.1389C177.233 11.9801 177.118 11.9801 177.07 11.9801L147.501 11.9907L150.15 7.19531H177.07C178.744 7.19531 180.283 8.20096 181.096 9.83118C181.9 11.4614 181.842 13.4409 180.943 15.0076L177.778 20.5228C177.52 20.9675 177.214 21.3591 176.85 21.6979L155.668 41.271C155.649 41.2922 155.63 41.3134 155.611 41.3451L151.03 49.6127Z" fill="white"/>
</svg>
